<?xml version="1.0" encoding="utf-8"?>
<!-- Generator: Adobe Illustrator 26.1.0, SVG Export Plug-In . SVG Version: 6.00 Build 0)  -->
<svg version="1.1" id="Vrstva_1" xmlns="http://www.w3.org/2000/svg" xmlns:xlink="http://www.w3.org/1999/xlink" x="0px" y="0px"
	 viewBox="0 0 426.4 201.4" style="enable-background:new 0 0 426.4 201.4;" xml:space="preserve">
<style type="text/css">
	.st0{fill:#FFFFFF;}
</style>
<rect width="426.4" height="201.4"/>
<g>
	<path class="st0" d="M394.2,40.9h1.8c1,0,1.9-0.2,1.9-1.3c0-1.3-1-1.4-1.9-1.4h-1.8V40.9z M394.2,42.3v3.5h-2v-9.2h4.3
		c1.6,0,3.6,0.4,3.6,2.9c0,1.5-0.9,2.2-2,2.5l2.2,3.8h-2.5l-1.7-3.5H394.2z M388.9,41.5c0,3.9,3,6.9,6.9,6.9c3.9,0,6.9-3.1,6.9-6.9
		c0-3.8-3-7-6.9-7C391.8,34.6,388.9,37.7,388.9,41.5 M404.2,41.6c0,4.6-3.6,8.2-8.5,8.2c-4.8,0-8.5-3.7-8.5-8.2
		c0-4.6,3.6-8.4,8.5-8.4C400.6,33.2,404.2,37,404.2,41.6"/>
	<rect x="373.9" y="36.7" class="st0" width="7.1" height="88.1"/>
	<path class="st0" d="M342.8,75.7h8.9l-0.1-5.1v-6.7c0.4-4.6,3.3-9.3,7.8-9.3c0.7,0,1.4,0.1,2,0.3V47c-0.3-0.1-0.7-0.1-1.2-0.1
		c-3.7,0-7.3,2.4-9.3,7.9h-0.1v-7.1h-8l0.1,5.1v17.8L342.8,75.7z M322.1,70.8c-3.7,0-6.2-2.7-6.2-9c0-6.3,2.5-9,6.2-9
		c3.6,0,6.1,2.7,6.1,9C328.3,68,325.7,70.8,322.1,70.8 M322.1,76.6c9.3,0,15.3-6.9,15.3-14.8c0-8.1-5.9-14.9-15.3-14.9
		c-9.3,0-15.3,6.8-15.3,14.9C306.8,69.7,312.8,76.6,322.1,76.6 M287,70.8c-4.1,0-5.9-3.2-5.9-9c0-5.8,1.7-9,5.9-9
		c2.6,0,4.7,1.9,5.6,4.3v9.6C291.7,68.8,289.6,70.8,287,70.8 M283.9,76.5c4.4,0,7.1-2,8.9-4.2h0.1v3.4h8.6l-0.1-5V41.8l0.1-5.1h-8.9
		l0.1,5.1v8.5h-0.1c-1.7-1.9-3.8-3.3-8-3.3c-7.3,0-12.6,5.2-12.6,14.8C272,71.4,277.3,76.5,283.9,76.5 M266.5,75.7l-0.1-5.1V56.7
		c0-6.7-3.5-9.8-9-9.8c-4.2,0-7.7,1.9-10.3,5.1H247v-4.3h-8.5l0.1,5.1v17.8l-0.1,5.1h8.9l-0.1-5.1V57.5c1.6-2.3,4-3.9,6.5-3.9
		c2.5,0,3.8,1.6,3.8,5v12l-0.1,5.1H266.5z M218.6,52.4c3.9,0,5.8,2.7,5.8,6.1h-12C213.1,54.2,215.3,52.4,218.6,52.4 M226,67.3
		c-1,1.5-3.5,3.4-6.9,3.4c-4,0-6.8-2.2-7-7.5h21c0.2-8.1-3.9-16.4-14.6-16.4c-8.3,0-14.7,5.8-14.7,15.3c0,9.2,6.3,14.4,15.1,14.4
		c8.1,0,12.2-4.4,13.7-6.9L226,67.3z M181.7,75.7H192l13-39h-9.2l-8.4,27.7h-0.1l-8.9-27.7h-10.5L181.7,75.7z M154.2,70.8
		c-3.7,0-6.2-2.7-6.2-9c0-6.3,2.5-9,6.2-9c3.6,0,6.1,2.7,6.1,9C160.4,68,157.8,70.8,154.2,70.8 M154.2,76.6
		c9.3,0,15.3-6.9,15.3-14.8c0-8.1-5.9-14.9-15.3-14.9c-9.3,0-15.3,6.8-15.3,14.9C138.9,69.7,144.9,76.6,154.2,76.6 M133.5,36.7h-8.8
		v7.6h8.8V36.7z M133.6,75.7l-0.1-5.1V52.8l0.1-5.1h-8.9l0.1,5.1v17.8l-0.1,5.1H133.6z M93.8,43.2h7.8c4.3,0,6.6,1.4,6.6,4.6
		c0,3.4-2.9,4.9-7.1,4.9h-7.4V43.2z M101.2,59.1c4.2,0,7.7,1.2,7.7,5.3c0,2.9-1.8,4.8-6.2,4.8h-8.9V59.1H101.2z M84.4,70.5l-0.1,5.1
		h20.2c7.1,0,14.2-2.3,14.2-10.1c0-8.1-7.7-9.7-9.3-9.8v-0.3c1.7-0.2,8.2-2.3,8.2-9.1c0-7.5-7.8-9.7-15.4-9.7H84.3
		c0,0.1,0.1,5.1,0.1,5.1V70.5z"/>
	<path class="st0" d="M233.6,119.8c-2.6,0-4.7-1.9-5.6-4.1v-9.6c0.8-2.5,3-4.3,5.6-4.3c4.2,0,5.9,3.2,5.9,9
		C239.5,116.7,237.7,119.8,233.6,119.8 M235.6,125.5c7.8,0,13-5.3,13-15c0-9.5-5.5-14.5-12.1-14.5c-4.4,0-7,2-8.7,4.1h-0.1v-3.3
		h-8.5l0.1,5.1v28.8l-0.1,5h8.9l-0.1-5v-8.4h0.1C229.7,124.2,232.1,125.5,235.6,125.5 M184.3,96.8l0.1,5.1v13.8c0,6.6,3.5,9.7,9,9.7
		c4.2,0,7.7-1.9,10.3-5.1h0.1v4.2h8.5l-0.1-5.1V102l0.1-5.1h-8.9l0.1,5.1V115c-1.6,2.2-4,3.6-6.5,3.6c-2.5,0-3.8-1.3-3.8-4.7v-12
		l0.1-5.1H184.3z M163.9,119.8c-3.6,0-6.2-2.7-6.2-9c0-6.3,2.5-9,6.2-9c3.6,0,6.1,2.7,6.1,9C170,117.1,167.5,119.8,163.9,119.8
		 M163.9,125.6c9.3,0,15.2-6.9,15.2-14.8c0-8.1-5.9-14.9-15.2-14.9c-9.3,0-15.3,6.8-15.3,14.9C148.6,118.8,154.6,125.6,163.9,125.6
		 M127.3,124.7h8.9l-0.1-5.1V113c0.4-4.6,3.3-9.3,7.8-9.3c0.7,0,1.4,0.1,2,0.3v-7.9c-0.3-0.1-0.7-0.1-1.2-0.1
		c-3.6,0-7.2,2.4-9.3,7.9h-0.1v-7.1h-8l0.1,5.1v17.8L127.3,124.7z M119.2,109.3l0.1-5.1h-17.2v6.3h8.4c-0.1,5.2-3.7,8.5-8.5,8.5
		c-4.7,0-9.4-3.6-9.4-13.6c0-9.7,4.2-13.8,9.3-13.8c4.6,0,7.4,3.5,8.3,6.8l8.7-1.9c-2.2-7.7-8.5-11.8-16.8-11.8
		c-11.5,0-19.4,8.1-19.4,20.8c0,13.3,8.1,20.2,18.5,20.2c6.2,0,9.7-2.5,11.9-5.8h0.1l0.4,4.8h5.6V109.3z"/>
	<polygon class="st0" points="131.2,135.7 131.2,135.7 91.2,170.5 30.2,134.1 46,64.7 74.1,62.2 73.4,55.1 40.2,58.1 22.1,137.5 
		92,179.3 135.8,141 	"/>
</g>
</svg>
